<svg width="528" height="528" xmlns="http://www.w3.org/2000/svg">
 <g>
  <title>Layer 1</title>
  <path d="m484.30698,193.40801l43.049,-46.836l-95.465,0c-47.792,-32.646 -105.51,-51.659 -167.931,-51.659c-62.342,0 -119.899,19.054 -167.612,51.659l-95.704,0l43.049,46.836c-26.387,24.075 -42.929,58.754 -42.929,97.259c0,72.665 58.914,131.578 131.579,131.578c34.519,0 65.968,-13.313 89.446,-35.077l42.172,45.919l42.172,-45.879c23.478,21.764 54.887,35.037 89.406,35.037c72.665,0 131.658,-58.913 131.658,-131.578c0.039,-38.545 -16.502,-73.223 -42.89,-97.259zm-351.925,186.306c-49.188,0 -89.047,-39.859 -89.047,-89.047s39.86,-89.048 89.047,-89.048c49.187,0 89.047,39.86 89.047,89.048s-39.86,89.047 -89.047,89.047zm131.618,-91.638c0,-58.595 -42.61,-108.898 -98.853,-130.383c30.413,-12.716 63.776,-19.771 98.813,-19.771s68.439,7.055 98.853,19.771c-56.202,21.525 -98.813,71.789 -98.813,130.383zm131.579,91.638c-49.188,0 -89.048,-39.859 -89.048,-89.047s39.86,-89.048 89.048,-89.048s89.047,39.86 89.047,89.048s-39.86,89.047 -89.047,89.047zm0,-135.764c-25.79,0 -46.677,20.887 -46.677,46.677c0,25.789 20.887,46.676 46.677,46.676c25.789,0 46.676,-20.887 46.676,-46.676c-0.001,-25.75 -20.887,-46.677 -46.676,-46.677zm-216.521,46.717c0,25.789 -20.887,46.676 -46.676,46.676s-46.676,-20.887 -46.676,-46.676c0,-25.79 20.887,-46.677 46.676,-46.677c25.789,-0.04 46.676,20.887 46.676,46.677z" id="svg_1"/>
 </g>

</svg>