<svg width="24" height="24" viewBox="0 0 24 24" fill="none" xmlns="http://www.w3.org/2000/svg">
<path d="M22.0384 8.48799L24 6.35388H19.6501C17.4724 4.86634 14.8424 4 11.9982 4C9.15752 4 6.5349 4.86821 4.36082 6.35388H0L1.96156 8.48799C0.759216 9.58499 0.00546788 11.1652 0.00546788 12.9197C0.00546788 16.2307 2.68993 18.9151 6.00096 18.9151C7.57384 18.9151 9.00684 18.3085 10.0766 17.3168L11.9982 19.4091L13.9198 17.3186C14.9896 18.3103 16.4208 18.9151 17.9937 18.9151C21.3047 18.9151 23.9928 16.2307 23.9928 12.9197C23.9945 11.1633 23.2408 9.58321 22.0384 8.48799V8.48799ZM6.00273 16.9772C3.76145 16.9772 1.94525 15.161 1.94525 12.9197C1.94525 10.6784 3.76149 8.86213 6.00273 8.86213C8.24397 8.86213 10.0602 10.6784 10.0602 12.9197C10.0602 15.161 8.24397 16.9772 6.00273 16.9772ZM12 12.8016C12 10.1317 10.0584 7.83959 7.49569 6.86061C8.88148 6.2812 10.4017 5.95974 11.9982 5.95974C13.5947 5.95974 15.1166 6.2812 16.5025 6.86061C13.9416 7.84142 12 10.1317 12 12.8016ZM17.9955 16.9772C15.7542 16.9772 13.938 15.161 13.938 12.9197C13.938 10.6784 15.7542 8.86213 17.9955 8.86213C20.2368 8.86213 22.053 10.6784 22.053 12.9197C22.053 15.161 20.2367 16.9772 17.9955 16.9772ZM17.9955 10.791C16.8204 10.791 15.8686 11.7427 15.8686 12.9178C15.8686 14.0929 16.8204 15.0447 17.9955 15.0447C19.1706 15.0447 20.1223 14.0929 20.1223 12.9178C20.1223 11.7445 19.1706 10.791 17.9955 10.791V10.791ZM8.12956 12.9197C8.12956 14.0948 7.17783 15.0465 6.00273 15.0465C4.82764 15.0465 3.87591 14.0948 3.87591 12.9197C3.87591 11.7445 4.82764 10.7928 6.00273 10.7928C7.17783 10.791 8.12956 11.7445 8.12956 12.9197V12.9197Z"/>
</svg>
